<svg width="16" height="16" viewBox="0 0 16 16" fill="none" xmlns="http://www.w3.org/2000/svg">
<g clip-path="url(#clip0_108_342)">
<mask id="mask0_108_342" style="mask-type:luminance" maskUnits="userSpaceOnUse" x="0" y="0" width="16" height="16">
<path d="M16 0H0V16H16V0Z" fill="white"/>
</mask>
<g mask="url(#mask0_108_342)">
<path d="M15.7656 14.6256C15.9158 14.7777 16 14.9831 16 15.1972C16 15.4113 15.9158 15.6167 15.7656 15.7688C15.6128 15.9171 15.4085 16 15.196 16C14.9834 16 14.7791 15.9171 14.6263 15.7688L8 9.10985L1.37373 15.7688C1.2209 15.9171 1.01663 16 0.804048 16C0.591462 16 0.387194 15.9171 0.234368 15.7688C0.0842274 15.6167 0 15.4113 0 15.1972C0 14.9831 0.0842274 14.7777 0.234368 14.6256L6.87064 7.97662L0.234368 1.32766C0.10687 1.17178 0.0417127 0.973885 0.0515713 0.772469C0.0614298 0.571053 0.145599 0.380517 0.287707 0.237922C0.429815 0.0953281 0.6197 0.0108709 0.820429 0.00097867C1.02116 -0.0089136 1.21838 0.0564663 1.37373 0.184401L8 6.84339L14.6263 0.184401C14.7816 0.0564663 14.9788 -0.0089136 15.1796 0.00097867C15.3803 0.0108709 15.5702 0.0953281 15.7123 0.237922C15.8544 0.380517 15.9386 0.571053 15.9484 0.772469C15.9583 0.973885 15.8931 1.17178 15.7656 1.32766L9.12937 7.97662L15.7656 14.6256Z" fill="#454955"/>
</g>
</g>
<defs>
<clipPath id="clip0_108_342">
<rect width="16" height="16" fill="white"/>
</clipPath>
</defs>
</svg>
